<svg xmlns="http://www.w3.org/2000/svg" fill="#65a3be" viewBox="0 0 92 32"><path d="M6.827 12.278c1.273-1.735 3.304-2.848 5.595-2.848l.521.019-.023-.001c4.272 0 7.587 2.988 7.587 7.941v14.047h-6.827v-11.636c0-2.529-1.31-3.931-3.381-3.931-1.9 0-3.473 1.31-3.473 4.062v11.505h-6.827v-31.45h6.827zM46.611 31.437h-6.552v-2.319c-1.357 1.764-3.468 2.89-5.843 2.89l-.332-.007.016.001c-5.713 0-9.946-4.98-9.946-11.296s4.233-11.256 9.972-11.256l.288-.006c2.378 0 4.491 1.131 5.832 2.884l.013.018v-2.306h6.552zm-15.725-10.72c0 2.533 2.053 4.586 4.586 4.586s4.586-2.053 4.586-4.586c0-2.533-2.053-4.586-4.586-4.586s-4.586 2.053-4.586 4.586zM73.959 20.704c0 6.316-4.246 11.296-9.959 11.296l-.342.008c-2.354 0-4.446-1.116-5.778-2.848l-.013-.017v2.293h-6.552v-31.45h6.814v12.095c1.343-1.61 3.351-2.628 5.596-2.628l.329.007-.016-.001c5.674-.013 9.92 4.94 9.92 11.243zm-16.157 0c0 2.533 2.053 4.586 4.586 4.586s4.586-2.053 4.586-4.586c0-2.533-2.053-4.586-4.586-4.586s-4.586 2.053-4.586 4.586zM92.318 9.776l-.59 6.801c-1.019-.342-2.193-.547-3.412-.563h-.008c-.15-.023-.323-.036-.498-.036-1.911 0-3.459 1.549-3.459 3.459 0 .151.01.3.029.447l-.002-.017v11.571h-6.84v-21.399h6.552v2.464c1.124-1.85 3.128-3.068 5.417-3.068l.448.016-.02-.001h.022c.842 0 1.655.12 2.425.343l-.061-.015z"></path></svg>